<?xml version="1.0" standalone="no"?>
<!DOCTYPE svg PUBLIC "-//W3C//DTD SVG 20010904//EN"
 "http://www.w3.org/TR/2001/REC-SVG-20010904/DTD/svg10.dtd">
<svg version="1.0" xmlns="http://www.w3.org/2000/svg"
 width="300.000000pt" height="300.000000pt" viewBox="0 0 300.000000 300.000000"
 preserveAspectRatio="xMidYMid meet">
<metadata>
Created by potrace 1.10, written by Peter Selinger 2001-2011
</metadata>
<g transform="translate(0.000000,300.000000) scale(0.100000,-0.100000)"
fill="#d8e7f2" stroke="none">
<path d="M1465 2693 c-97 -62 -126 -113 -100 -176 8 -20 13 -37 10 -37 -3 0 8
-20 25 -44 16 -25 30 -50 30 -57 0 -7 7 -20 15 -29 9 -10 18 -28 22 -41 10
-39 10 -133 0 -146 -5 -7 -7 -13 -3 -13 9 0 -22 -49 -53 -84 -21 -23 -22 -28
-8 -23 11 4 30 10 43 13 13 3 24 9 24 13 0 4 6 8 13 8 25 0 107 64 133 103 21
31 25 47 20 72 -4 18 -8 40 -9 50 -2 9 -9 23 -16 32 -8 9 -10 16 -5 16 5 0 5
4 -1 8 -5 4 -18 23 -29 42 -10 19 -27 50 -37 68 -10 17 -15 32 -11 32 4 0 1 4
-6 8 -29 19 -37 135 -11 180 22 39 10 41 -46 5z m17 -57 c-5 -67 8 -107 70
-218 27 -48 55 -107 62 -132 12 -39 12 -49 -4 -84 -10 -22 -33 -51 -51 -65
-40 -29 -123 -72 -117 -60 70 142 70 166 -10 327 -65 131 -73 166 -46 204 13
18 90 82 99 82 1 0 0 -24 -3 -54z"/>
<path d="M1003 2571 c-52 -38 -79 -73 -78 -102 1 -30 35 -119 46 -119 4 0 13
-17 20 -37 6 -21 16 -41 22 -44 12 -8 16 -106 6 -135 -4 -12 -23 -39 -41 -60
-25 -28 -28 -36 -13 -30 11 4 25 9 30 10 42 9 153 90 156 114 6 54 2 75 -25
132 -17 36 -34 67 -38 68 -5 2 -8 12 -8 22 0 10 -5 20 -11 22 -5 2 -12 12 -14
23 -2 11 -4 20 -5 20 -2 0 -4 25 -5 55 -2 39 2 60 13 73 26 29 -9 22 -55 -12z
m23 -53 c0 -45 9 -71 58 -166 51 -98 58 -117 53 -153 -6 -49 -22 -68 -88 -104
l-50 -27 20 41 c36 69 29 124 -29 237 -53 103 -57 119 -39 156 7 16 64 68 74
68 0 0 1 -24 1 -52z"/>
<path d="M1913 2570 c-85 -49 -94 -88 -49 -197 10 -24 22 -43 26 -43 7 0 18
-21 25 -50 1 -3 7 -18 14 -35 7 -16 10 -44 6 -62 -3 -18 -6 -35 -5 -38 1 -12
-32 -66 -53 -86 -20 -20 -20 -21 -2 -15 11 5 25 9 31 10 7 1 20 8 30 16 9 8
19 14 21 13 18 -14 109 71 110 103 1 30 -29 134 -38 134 -5 0 -9 6 -9 13 0 7
-11 28 -25 47 -14 19 -25 42 -25 52 0 10 -4 18 -10 18 -5 0 -9 3 -8 8 1 4 -2
22 -6 40 -6 25 -3 41 13 67 11 19 17 35 13 35 -4 0 -30 -14 -59 -30z m21 -35
c-8 -44 13 -102 69 -198 49 -84 59 -149 29 -187 -17 -22 -122 -88 -122 -78 0
2 9 21 20 43 34 66 27 117 -30 228 -52 101 -60 139 -35 171 13 17 64 56 73 56
2 0 0 -16 -4 -35z"/>
<path d="M671 1945 c-4 -5 -7 -39 -7 -75 l1 -65 33 -3 c17 -2 32 1 32 6 0 5
-10 8 -22 8 -26 -1 -39 37 -29 86 l7 33 809 0 810 0 0 -60 c0 -57 -1 -60 -24
-57 -15 2 -21 0 -17 -7 12 -18 56 -13 57 7 3 33 0 125 -4 128 -9 10 -1639 8
-1646 -1z"/>
<path d="M740 1795 c-6 -45 0 -196 9 -213 5 -9 9 -20 10 -25 2 -17 14 -63 20
-72 3 -5 6 -12 6 -15 2 -9 34 -75 47 -95 36 -54 139 -157 193 -192 28 -18 55
-36 60 -41 20 -16 124 -62 143 -62 10 0 22 -3 26 -7 9 -9 36 -15 151 -31 58
-8 164 -9 185 -2 3 1 10 3 15 4 21 3 101 19 118 22 9 2 26 6 38 9 12 2 26 9
33 14 6 5 14 10 19 10 15 2 144 69 167 87 50 40 150 145 173 181 12 21 35 66
51 101 39 89 45 118 51 245 2 48 0 85 -4 82 -5 -2 -11 -51 -14 -107 -13 -246
-143 -435 -381 -555 -325 -164 -769 -70 -977 207 -87 116 -118 205 -129 370
-4 58 -8 96 -10 85z"/>
<path d="M498 1089 c-10 -5 -18 -15 -18 -21 0 -6 -7 -16 -15 -22 -24 -17 -48
-121 -39 -170 4 -22 7 -44 6 -48 -2 -8 0 -9 34 -13 12 -1 26 -5 33 -9 6 -4 20
-9 31 -12 11 -2 30 -7 43 -10 12 -3 28 -6 35 -6 6 -1 12 -5 12 -9 0 -4 15 -9
33 -11 17 -3 40 -8 50 -13 9 -4 17 -3 17 2 0 6 -62 27 -137 49 l-137 39 -9 43
c-10 53 11 123 51 172 l28 33 490 -138 489 -138 65 16 c36 9 257 65 492 125
l427 109 25 -26 c48 -50 67 -130 47 -200 -6 -22 -25 -29 -231 -81 -124 -32
-468 -119 -765 -195 -297 -76 -550 -140 -562 -143 -13 -2 -23 -8 -23 -13 0
-12 7 -11 29 1 10 5 33 11 52 14 53 7 91 16 109 26 15 8 67 19 108 22 6 1 12
5 12 10 0 5 4 7 8 4 5 -3 27 2 51 10 23 8 47 12 52 9 5 -4 9 -2 9 3 0 5 6 9
13 10 21 2 60 11 102 22 22 6 55 13 74 16 18 2 41 9 51 14 15 8 31 12 95 25
28 5 47 11 65 18 15 6 56 16 96 22 12 2 30 7 40 13 17 8 84 22 122 25 6 0 12
5 12 10 0 6 3 7 6 4 4 -3 15 -2 24 3 10 5 35 12 56 14 22 3 68 14 103 26 35
11 67 17 72 14 5 -3 9 -1 9 3 0 5 8 9 18 10 29 3 56 9 72 16 8 4 26 9 40 11
14 3 27 6 30 7 9 4 24 7 43 8 10 0 16 5 12 10 -3 5 0 13 6 16 5 4 8 13 5 21
-3 8 -2 14 2 14 4 0 7 20 7 45 0 25 -4 45 -9 45 -5 0 -7 3 -3 6 8 9 -26 72
-59 108 -21 23 -28 26 -35 15 -5 -8 -9 -11 -9 -7 0 3 -21 0 -47 -8 -25 -8 -48
-12 -51 -9 -3 2 -14 -1 -25 -6 -11 -6 -29 -12 -41 -14 -11 -2 -36 -8 -55 -14
-19 -6 -38 -8 -42 -5 -5 3 -9 1 -9 -4 0 -5 -6 -9 -12 -10 -35 -5 -56 -9 -88
-20 -32 -10 -66 -18 -115 -26 -11 -2 -32 -8 -46 -14 -15 -6 -47 -13 -70 -17
-24 -3 -57 -12 -74 -19 -16 -8 -49 -17 -73 -20 -23 -3 -51 -10 -61 -15 -10 -6
-34 -13 -52 -15 -19 -3 -52 -10 -74 -15 -47 -12 -45 -12 -69 1 -10 6 -33 12
-50 15 -17 3 -40 10 -51 16 -11 5 -35 12 -54 14 -18 2 -42 8 -51 13 -10 5 -20
6 -24 3 -3 -3 -6 -2 -6 4 0 5 -6 10 -12 11 -7 0 -24 3 -38 7 -14 3 -36 8 -50
11 -13 3 -30 10 -37 16 -8 6 -16 8 -20 5 -3 -4 -12 -2 -20 5 -7 6 -16 8 -20 5
-3 -4 -15 -1 -26 4 -11 6 -34 13 -51 16 -17 3 -38 9 -47 14 -15 8 -77 24 -138
35 -14 3 -29 8 -35 12 -6 4 -13 7 -16 8 -17 3 -67 17 -80 21 -18 7 -39 13 -65
17 -11 2 -27 6 -35 10 -8 3 -23 1 -32 -5z"/>
<path d="M734 741 c3 -5 18 -11 33 -14 59 -11 87 -18 117 -31 17 -7 38 -11 46
-8 8 3 -30 18 -85 34 -109 31 -119 32 -111 19z"/>
<path d="M939 675 c-3 -2 -21 -5 -42 -7 -20 -1 -37 -6 -37 -12 0 -5 -2 -7 -6
-4 -3 3 -25 0 -49 -7 -24 -8 -45 -11 -48 -8 -3 2 -16 -1 -29 -8 -12 -7 -50
-19 -83 -26 -63 -14 -70 -16 -124 -32 -19 -6 -38 -8 -42 -5 -5 3 -9 0 -9 -6 0
-6 -4 -8 -10 -5 -12 7 -43 -8 -40 -21 1 -5 -1 -32 -4 -61 -7 -58 2 -83 49
-153 33 -47 49 -57 69 -41 6 5 31 12 56 16 24 4 52 11 61 15 9 5 19 7 22 3 4
-3 12 -1 19 5 7 5 27 13 43 16 17 3 44 8 60 11 17 4 35 8 40 9 6 1 16 5 22 9
11 7 56 16 91 19 11 1 18 18 7 18 -3 0 -106 -25 -228 -56 l-221 -55 -28 33
c-15 18 -32 49 -38 68 -12 41 -13 120 -2 137 4 7 118 40 252 74 135 34 249 66
255 71 5 4 7 8 4 8 -3 0 -8 -2 -10 -5z"/>
<path d="M2185 594 c-35 -13 -72 -22 -112 -26 -7 -1 -13 -5 -13 -10 0 -4 -3
-7 -7 -6 -5 1 -23 -2 -41 -6 -33 -8 -74 -15 -99 -18 -7 -1 -13 -5 -13 -10 0
-4 -3 -7 -7 -7 -5 1 -28 -2 -53 -7 -25 -4 -48 -7 -52 -6 -5 1 -8 -2 -8 -6 0
-5 -6 -9 -12 -10 -7 0 -22 -3 -33 -6 -11 -2 -24 -5 -29 -5 -32 -3 45 -25 112
-33 6 -1 12 -4 12 -8 0 -4 7 -7 15 -7 13 0 74 -16 115 -31 24 -8 43 -13 73
-17 16 -3 34 -8 40 -12 7 -4 17 -8 22 -10 6 -1 21 -5 35 -8 14 -4 31 -7 38 -7
6 -1 12 -4 12 -8 0 -3 14 -7 32 -8 17 -2 38 -8 45 -14 7 -6 16 -8 19 -5 3 3
25 -1 47 -10 23 -8 53 -17 67 -19 14 -3 29 -9 35 -15 5 -5 17 -9 27 -9 23 0
68 28 68 43 0 5 7 15 15 21 37 27 42 162 9 214 -1 2 -17 6 -36 9 -18 3 -41 10
-52 15 -10 6 -33 12 -50 15 -17 3 -38 9 -47 14 -9 4 -27 10 -40 13 -72 13 -98
13 -134 0z m210 -39 c71 -20 134 -40 142 -46 16 -14 18 -115 2 -156 -12 -34
-58 -83 -76 -83 -7 0 -142 37 -300 81 -159 45 -317 89 -353 98 l-65 17 90 23
c50 12 155 40 235 60 80 21 157 39 171 40 14 0 83 -15 154 -34z"/>
</g>
</svg>
