<?xml version="1.0" standalone="no"?>
<!DOCTYPE svg PUBLIC "-//W3C//DTD SVG 20010904//EN"
 "http://www.w3.org/TR/2001/REC-SVG-20010904/DTD/svg10.dtd">
<svg version="1.0" xmlns="http://www.w3.org/2000/svg"
 width="300.000000pt" height="479.000000pt" viewBox="0 0 300.000000 479.000000"
 preserveAspectRatio="xMidYMid meet">
<metadata>
Created by potrace 1.10, written by Peter Selinger 2001-2011
</metadata>
<g transform="translate(0.000000,479.000000) scale(0.100000,-0.100000)"
fill="#d8e7f2" stroke="none">
<path d="M1746 4721 c-17 -186 -75 -379 -176 -586 -93 -191 -139 -258 -335
-485 -235 -273 -304 -375 -397 -583 -52 -116 -113 -311 -124 -398 -3 -30 -8
-65 -11 -79 -9 -49 -10 -266 -1 -343 23 -220 117 -463 265 -685 53 -81 199
-239 258 -280 17 -12 25 -22 19 -22 -28 -1 -207 132 -289 214 -203 206 -311
433 -346 726 -15 136 -7 250 33 419 46 197 45 357 -3 544 -14 53 -36 48 -44
-10 -21 -152 -63 -248 -170 -384 -91 -115 -136 -198 -169 -312 -73 -251 -41
-523 85 -733 44 -73 144 -181 222 -240 111 -84 419 -219 641 -283 119 -34 136
-36 136 -20 0 7 10 4 26 -6 14 -9 29 -13 33 -8 4 4 13 44 20 88 42 259 194
546 375 709 154 138 276 306 376 519 111 238 160 473 161 766 0 151 -8 233
-36 370 -25 124 -174 579 -225 686 -72 150 -285 485 -309 485 -4 0 -11 -31
-15 -69z m201 -216 c126 -209 176 -333 282 -700 83 -284 94 -363 88 -604 -3
-147 -10 -223 -26 -305 -54 -267 -168 -527 -314 -716 -28 -36 -106 -121 -175
-190 -148 -149 -239 -280 -307 -441 -44 -104 -95 -277 -95 -323 0 -40 -14 -50
-44 -31 -15 10 -26 13 -26 6 0 -18 -38 -12 -155 23 -169 51 -248 82 -405 157
-216 104 -332 202 -423 357 -150 257 -159 590 -22 862 15 30 67 107 114 170
99 131 145 229 161 341 15 108 19 106 45 -26 35 -173 32 -245 -25 -505 -54
-253 -25 -531 81 -767 99 -221 326 -457 547 -567 52 -26 72 -22 30 7 -13 8
-45 36 -73 61 -27 25 -53 45 -56 46 -11 0 -137 157 -189 234 -62 93 -150 273
-184 379 -46 140 -57 216 -63 397 -4 149 -2 193 16 299 39 228 133 462 266
661 66 98 114 158 320 397 238 274 394 615 436 949 l13 102 61 -87 c34 -47 89
-131 122 -186z"/>
<path d="M2591 3686 c19 -69 27 -321 18 -550 -10 -257 -27 -361 -85 -527 -54
-158 -105 -231 -277 -403 -162 -162 -242 -262 -311 -389 -61 -113 -150 -324
-180 -429 -25 -85 -57 -238 -50 -238 1 0 33 23 69 50 122 92 228 132 402 150
299 32 586 227 718 490 54 108 107 307 104 389 -1 14 -8 -14 -15 -64 -26 -169
-68 -281 -158 -415 -142 -214 -391 -360 -665 -391 -53 -6 -120 -17 -150 -26
-70 -19 -174 -71 -235 -118 -26 -20 -50 -34 -53 -31 -15 15 55 255 119 406
116 274 187 380 384 576 163 163 228 245 273 346 40 88 79 214 96 315 31 180
37 735 9 848 -4 15 -2 25 5 25 14 0 117 -208 174 -352 106 -263 175 -574 202
-906 4 -46 9 -81 12 -78 7 6 -14 228 -33 346 -8 52 -17 112 -20 134 -7 59 -49
220 -88 339 -61 186 -206 506 -240 529 -26 18 -34 8 -25 -26z"/>
<path d="M151 1109 c-61 -77 -84 -147 -79 -245 3 -56 10 -91 24 -115 l20 -33
134 -2 c237 -4 235 -3 650 -192 91 -41 193 -85 227 -98 50 -19 488 -133 568
-148 181 -34 356 -79 520 -135 110 -37 209 -72 219 -76 18 -8 19 -5 12 61 -16
172 -19 254 -8 267 7 8 55 40 107 73 85 52 110 74 87 74 -4 0 -73 11 -152 25
-80 14 -158 28 -175 31 -150 25 -368 90 -745 224 -347 123 -552 187 -658 205
-19 3 -71 14 -115 24 -139 32 -555 111 -585 111 -6 0 -28 -23 -51 -51z m189
17 c160 -26 486 -95 665 -141 177 -45 303 -86 565 -180 426 -154 586 -197
1014 -273 l40 -7 -96 -59 c-99 -59 -116 -79 -113 -136 2 -33 15 -165 21 -214
4 -33 2 -38 -13 -33 -10 3 -96 33 -191 66 -98 35 -242 76 -336 96 -223 48
-691 162 -746 182 -25 9 -148 63 -275 120 -360 163 -432 183 -650 183 l-104 0
-18 33 c-21 40 -24 163 -5 228 8 26 34 72 59 104 36 45 49 56 66 51 12 -2 65
-12 117 -20z"/>
<path d="M2675 1110 c-211 -38 -454 -80 -490 -86 -156 -23 -504 -89 -498 -95
22 -20 539 -187 663 -213 14 -3 53 -12 88 -20 59 -13 67 -12 175 14 211 53
301 80 313 92 33 36 43 130 22 202 -12 39 -68 105 -105 124 -12 6 -69 0 -168
-18z m190 -12 c71 -46 106 -169 71 -253 -17 -39 -28 -46 -121 -70 -38 -10
-125 -33 -192 -51 l-121 -33 -149 39 c-311 80 -642 186 -626 200 4 4 96 21
203 39 107 17 341 58 520 91 179 32 337 59 353 59 15 1 43 -9 62 -21z"/>
<path d="M393 553 c-79 -26 -143 -50 -143 -55 0 -4 17 -8 38 -8 73 -1 168 -65
208 -143 24 -46 30 -161 10 -217 -8 -24 -14 -46 -12 -47 2 -2 54 15 117 38
165 59 463 163 541 189 37 12 70 25 73 30 5 9 -25 19 -115 39 -94 21 -286 94
-411 156 -71 36 -137 65 -146 64 -10 0 -82 -21 -160 -46z m310 -32 c145 -71
253 -112 412 -154 50 -14 83 -27 75 -31 -64 -25 -674 -235 -676 -233 -2 2 4
25 12 52 45 145 -58 311 -213 343 -35 7 -32 9 78 41 63 18 121 37 129 42 26
15 39 10 183 -60z"/>
<path d="M2740 427 c-151 -82 -159 -94 -136 -215 25 -129 34 -150 68 -168 24
-12 39 -13 79 -5 67 15 99 32 141 79 68 76 92 217 49 300 -20 39 -54 72 -76
72 -5 0 -62 -28 -125 -63z m189 -11 c54 -105 8 -273 -92 -335 -45 -28 -120
-43 -151 -31 -33 12 -42 31 -67 143 -31 142 -30 143 174 251 82 43 102 39 136
-28z"/>
<path d="M146 435 c-42 -15 -100 -66 -121 -105 -7 -14 -15 -43 -18 -65 -6 -37
-5 -36 12 13 22 63 70 117 126 143 75 35 145 19 215 -49 39 -38 50 -57 60
-102 22 -102 -28 -202 -123 -246 -36 -16 -43 -22 -22 -18 91 18 161 114 159
219 -1 97 -45 164 -134 204 -52 24 -99 26 -154 6z"/>
<path d="M1 194 c0 -11 3 -14 6 -6 3 7 2 16 -1 19 -3 4 -6 -2 -5 -13z"/>
<path d="M10 162 c0 -21 36 -85 62 -109 22 -21 88 -54 105 -53 4 1 -10 10 -32
22 -56 28 -94 66 -116 113 -10 22 -19 34 -19 27z"/>
</g>
</svg>
