<?xml version="1.0" standalone="no"?>
<!DOCTYPE svg PUBLIC "-//W3C//DTD SVG 20010904//EN"
 "http://www.w3.org/TR/2001/REC-SVG-20010904/DTD/svg10.dtd">
<svg version="1.0" xmlns="http://www.w3.org/2000/svg"
 width="300.000000pt" height="300.000000pt" viewBox="0 0 300.000000 300.000000"
 preserveAspectRatio="xMidYMid meet">
<metadata>
Created by potrace 1.10, written by Peter Selinger 2001-2011
</metadata>
<g transform="translate(0.000000,300.000000) scale(0.100000,-0.100000)"
fill="#d8e7f2" stroke="none">
<path d="M1608 2961 c-15 -5 -29 -6 -32 -3 -3 3 -6 0 -6 -7 0 -9 9 -10 33 -4
46 11 120 8 159 -7 49 -20 111 -73 133 -114 11 -20 23 -36 28 -36 4 0 0 11 -9
25 -9 14 -13 25 -8 25 7 0 -56 61 -101 98 -27 23 -152 37 -197 23z"/>
<path d="M1530 2930 c0 -7 -3 -10 -7 -6 -9 8 -93 -83 -93 -101 0 -7 -4 -13 -8
-13 -15 0 -34 -123 -23 -152 5 -14 7 -29 4 -32 -3 -3 -1 -12 5 -19 7 -8 10
-16 7 -19 -3 -3 1 -11 10 -18 8 -7 15 -17 15 -23 0 -5 10 -18 23 -29 12 -11
34 -30 49 -44 15 -13 35 -24 43 -24 8 0 15 -4 15 -10 0 -5 7 -10 15 -10 26 0
16 16 -19 28 -28 11 -157 132 -140 132 4 0 2 6 -3 13 -16 22 -15 115 2 172 12
43 28 69 66 107 28 28 48 53 45 56 -3 3 -6 -1 -6 -8z"/>
<path d="M1926 2748 c3 -18 8 -39 10 -47 6 -20 -24 -108 -53 -154 -13 -21 -43
-50 -67 -65 -79 -49 -84 -53 -51 -40 64 25 110 64 140 118 16 30 32 64 34 75
9 40 1 145 -11 145 -4 0 -5 -15 -2 -32z"/>
<path d="M946 2423 c-27 -7 -53 -18 -58 -25 -4 -7 -8 -9 -8 -5 0 13 -35 -19
-82 -75 -10 -11 -15 -25 -12 -29 3 -5 1 -9 -4 -9 -5 0 -13 -19 -17 -42 -10
-58 -13 -518 -3 -518 4 0 5 -7 2 -14 -11 -28 49 -85 81 -78 14 2 25 0 25 -5 0
-5 19 -10 42 -11 56 -3 75 -9 75 -27 0 -8 -4 -15 -8 -15 -4 0 -12 -23 -18 -51
-6 -28 -17 -60 -23 -72 -7 -12 -13 -25 -14 -29 -1 -5 -3 -11 -4 -15 -1 -5 -2
-11 -1 -15 0 -5 -4 -8 -10 -8 -5 0 -8 -4 -4 -9 3 -5 1 -12 -4 -16 -5 -3 -9
-13 -9 -23 1 -9 -6 -34 -16 -54 -10 -20 -18 -42 -20 -50 -1 -7 -5 -19 -9 -25
-5 -7 -4 -13 1 -13 6 0 22 33 36 72 14 40 37 105 51 143 61 165 67 186 54 201
-6 8 -21 14 -32 14 -11 0 -47 5 -80 12 -44 9 -65 20 -83 41 l-24 29 2 271 c3
257 4 274 25 312 22 42 60 81 105 109 30 19 199 34 351 32 48 -1 87 1 87 5 0
12 -343 6 -394 -8z"/>
<path d="M1350 2434 c0 -5 47 -26 88 -38 12 -4 22 -3 22 2 0 8 -32 19 -72 26
-3 1 -10 4 -14 9 -9 8 -24 10 -24 1z"/>
<path d="M1610 2432 c0 -5 27 -8 60 -8 33 0 60 4 60 8 0 5 -27 8 -60 8 -33 0
-60 -4 -60 -8z"/>
<path d="M1470 2393 c0 -6 60 -32 133 -59 206 -76 224 -106 162 -276 -47 -127
-50 -139 -37 -118 6 8 10 19 10 24 0 5 5 12 11 15 6 4 13 18 15 31 2 14 5 26
7 28 1 1 2 5 4 10 1 4 4 14 8 22 30 78 33 105 19 153 -7 27 -16 46 -19 43 -3
-3 -11 0 -19 7 -35 31 -45 37 -75 42 -18 3 -39 11 -45 16 -7 6 -25 12 -41 15
-15 3 -29 9 -31 14 -2 5 -20 12 -40 16 -20 4 -43 11 -49 17 -9 6 -13 6 -13 0z"/>
<path d="M1183 2323 c-5 -10 -6 -40 -2 -68 l6 -50 1 64 c2 58 4 63 22 58 11
-3 23 -1 26 4 3 5 -6 9 -20 9 -14 0 -29 -8 -33 -17z"/>
<path d="M1230 2305 c-7 -8 -9 -15 -5 -15 4 0 2 -6 -4 -14 -7 -8 -14 -32 -16
-53 -4 -32 -3 -34 5 -15 6 13 8 28 4 33 -3 5 -1 9 4 9 5 0 13 16 19 35 12 39
11 42 -7 20z"/>
<path d="M1954 2250 c-21 -8 -41 -70 -29 -89 3 -6 1 -12 -5 -16 -12 -8 0 -67
17 -80 9 -7 11 -22 7 -47 -5 -29 -13 -39 -34 -47 -16 -5 -30 -7 -33 -5 -2 3
-25 -4 -50 -15 -25 -11 -47 -18 -49 -16 -2 2 -14 -5 -28 -16 -23 -18 -20 -17
40 3 36 13 67 25 70 28 3 3 18 6 33 7 39 3 55 18 63 59 5 25 2 40 -10 53 -17
19 -20 108 -5 148 10 27 39 36 74 23 27 -10 28 -11 23 -85 -3 -41 -11 -81 -18
-90 -7 -8 -10 -21 -7 -30 4 -8 2 -17 -3 -20 -19 -12 -9 -43 25 -78 51 -52 42
-120 -19 -161 -22 -14 -26 -24 -26 -62 0 -28 4 -43 10 -39 6 4 7 23 4 46 -4
24 -3 39 4 39 18 0 70 61 75 88 3 15 -1 39 -9 54 -8 15 -13 31 -12 35 1 5 -10
14 -25 21 -27 13 -36 45 -17 57 6 4 8 10 5 15 -3 4 2 13 11 20 8 7 13 18 11
24 -3 6 0 40 4 75 8 59 7 66 -13 88 -22 24 -48 28 -84 13z"/>
<path d="M1865 1721 c-28 -10 -95 -35 -149 -55 -55 -20 -101 -36 -103 -36 -11
0 -62 -133 -59 -155 2 -14 126 -194 151 -218 14 -15 17 -194 3 -203 -4 -3 -8
-10 -8 -17 0 -23 23 11 26 40 3 30 5 115 3 148 -2 21 -61 110 -109 162 -8 9
-15 19 -14 22 0 6 -11 21 -32 44 -10 10 1 66 23 117 3 8 6 17 6 20 0 7 35 40
45 41 4 1 17 5 30 10 13 5 32 9 43 9 10 0 19 5 19 10 0 6 3 9 8 9 4 -1 9 -1
12 1 3 1 16 3 29 6 14 2 30 9 36 14 6 5 30 16 53 24 46 17 50 13 46 -49 -2
-22 -6 -83 -9 -135 -3 -52 -7 -113 -8 -135 -2 -22 -1 -49 3 -60 4 -12 8 11 10
55 4 114 9 199 16 266 7 79 -3 89 -71 65z"/>
<path d="M1986 1628 c-8 -33 -7 -91 3 -106 5 -9 8 14 7 57 0 39 -2 71 -2 71
-1 0 -4 -10 -8 -22z"/>
<path d="M1972 1470 c0 -58 -9 -233 -17 -319 -4 -37 -2 -77 3 -91 9 -21 10
-17 9 25 -2 66 10 282 18 320 3 17 2 48 -4 70 l-10 40 1 -45z"/>
<path d="M1279 1293 c5 -10 21 -29 35 -42 14 -14 26 -28 26 -32 0 -11 72 -89
82 -89 5 0 -25 41 -68 90 -76 89 -93 106 -75 73z"/>
<path d="M1212 1214 c-23 -47 -40 -89 -37 -94 3 -4 1 -10 -4 -12 -5 -1 -50
-86 -99 -188 -73 -152 -98 -193 -133 -224 -73 -65 -280 -268 -276 -272 8 -8
356 332 358 350 1 6 1 14 0 19 0 4 3 7 8 7 8 0 21 25 26 50 1 3 16 37 35 75
18 39 32 73 32 78 -1 4 3 7 10 7 6 0 8 3 5 7 -4 3 0 15 10 25 9 10 12 18 8 18
-4 0 -1 8 9 19 9 10 18 27 21 39 2 11 11 35 21 54 10 18 17 36 16 41 -1 4 3 7
9 7 5 0 8 4 5 9 -4 5 -1 11 4 13 9 3 25 58 17 58 -1 0 -22 -39 -45 -86z"/>
<path d="M1894 1232 c-1 -45 1 -59 6 -42 10 33 12 110 3 110 -5 0 -9 -30 -9
-68z"/>
<path d="M830 1170 c0 -5 5 -10 10 -10 6 0 10 5 10 10 0 6 -4 10 -10 10 -5 0
-10 -4 -10 -10z"/>
<path d="M2891 1163 c-5 -10 -11 -17 -13 -15 -2 2 -16 -2 -33 -8 -33 -13 -63
-21 -82 -22 -15 -1 -18 -18 -3 -18 15 0 123 42 144 56 25 17 44 8 51 -27 4
-16 11 -29 15 -29 33 0 -84 -133 -137 -156 -18 -8 -48 -14 -67 -14 -56 0 -87
-17 -162 -90 -72 -70 -85 -77 -164 -83 -26 -3 -15 -4 25 -4 l70 0 68 69 c66
66 119 103 130 92 3 -3 30 -1 61 6 47 10 65 20 122 75 37 36 69 72 70 81 1 9
-7 36 -19 60 -23 48 -57 60 -76 27z"/>
<path d="M1895 1149 c-4 -6 -9 -43 -11 -82 -2 -40 -7 -110 -10 -157 -3 -47 -6
-105 -7 -130 l-2 -45 -107 3 c-60 2 -108 0 -108 -5 0 -9 215 -11 224 -2 3 3 8
61 11 130 3 68 8 159 10 201 2 43 6 82 10 88 3 5 4 10 1 10 -3 0 -8 -5 -11
-11z"/>
<path d="M815 1108 c-10 -24 -19 -45 -20 -48 0 -3 -8 -21 -17 -40 -8 -19 -18
-51 -22 -71 -4 -23 -23 -54 -52 -85 -25 -27 -62 -67 -82 -88 -21 -22 -37 -42
-37 -45 0 -3 -10 -16 -22 -28 -13 -13 -23 -28 -23 -34 0 -5 -4 -7 -10 -4 -5 3
-10 1 -10 -5 0 -6 -15 -26 -32 -44 -18 -17 -58 -60 -88 -94 -48 -55 -55 -68
-56 -107 -1 -25 3 -45 7 -45 5 0 4 -9 -3 -19 -7 -11 -16 -19 -21 -18 -5 1 -12
-4 -14 -11 -4 -10 1 -10 21 -1 14 7 23 15 21 20 -3 4 -1 10 4 14 7 4 7 15 0
32 -5 14 -6 35 -3 47 4 11 64 86 133 166 153 176 177 203 219 249 37 39 76
116 67 130 -3 5 -1 11 3 13 9 3 65 149 59 154 -2 3 -12 -15 -22 -38z"/>
<path d="M1425 1112 c-12 -9 -18 -55 -6 -48 6 4 23 57 17 56 0 0 -5 -4 -11 -8z"/>
<path d="M2694 1101 c-4 -4 -122 -10 -227 -12 -10 0 -41 -22 -70 -50 -28 -27
-48 -49 -43 -49 5 0 3 -7 -4 -15 -7 -8 -9 -15 -6 -15 4 0 1 -6 -6 -14 -7 -8
-15 -12 -16 -11 -2 2 -21 -5 -42 -16 -33 -17 -50 -23 -96 -33 -7 -1 -18 -7
-26 -14 -8 -6 -18 -9 -21 -5 -4 3 -7 1 -7 -6 0 -9 6 -11 18 -6 9 4 48 18 86
31 91 31 110 44 136 99 12 25 34 54 49 63 14 9 28 19 31 22 6 6 27 8 162 12
64 2 113 9 119 15 9 9 7 12 -10 10 -12 -1 -24 -4 -27 -6z"/>
<path d="M1402 1017 c-1 -19 -6 -46 -12 -62 -6 -15 -8 -30 -6 -33 7 -7 22 35
31 86 4 24 3 42 -3 42 -5 0 -9 -15 -10 -33z"/>
<path d="M1676 968 c-9 -29 -18 -64 -20 -78 -1 -14 -6 -31 -9 -38 -21 -32 -36
-106 -26 -124 6 -11 13 -17 16 -14 3 3 1 11 -5 18 -7 9 -6 24 3 50 7 21 10 40
7 43 -3 3 0 5 7 5 7 0 10 4 6 9 -3 5 0 13 6 16 5 4 8 13 5 20 -2 7 -2 16 2 19
3 4 7 17 9 29 2 12 6 29 10 37 3 8 7 18 7 22 1 3 4 10 9 14 9 10 9 24 -1 24
-4 0 -16 -24 -26 -52z"/>
<path d="M1946 993 c-9 -41 -15 -236 -8 -228 4 4 8 32 9 63 1 31 4 87 6 125 4
72 2 83 -7 40z"/>
<path d="M1366 858 c-4 -29 -8 -61 -9 -70 -1 -10 -4 -18 -8 -18 -3 0 -6 -18
-7 -41 -1 -22 -6 -48 -11 -58 -11 -20 -4 -61 10 -61 5 0 9 -4 9 -8 0 -14 -116
-34 -157 -28 -32 6 -142 -3 -268 -20 -16 -2 -37 -5 -45 -6 -25 -2 -234 -148
-212 -148 6 0 39 21 74 48 106 79 126 89 208 98 14 1 52 6 85 9 33 4 103 8
155 10 100 3 157 12 165 25 3 5 0 19 -6 33 -10 22 -6 58 15 152 2 11 9 42 16
69 6 29 7 53 2 58 -6 6 -12 -12 -16 -44z"/>
<path d="M2066 825 c-27 -19 -64 -39 -82 -45 -19 -7 -34 -16 -34 -20 0 -5 8
-7 18 -3 33 12 152 85 152 94 0 13 0 13 -54 -26z"/>
<path d="M2366 742 c-2 -4 4 -9 15 -9 11 -1 17 2 14 8 -7 11 -22 12 -29 1z"/>
<path d="M2275 719 c-33 -11 -67 -21 -75 -22 -27 -4 -48 -21 -70 -60 -26 -43
-81 -82 -145 -101 -23 -7 -82 -38 -131 -68 -110 -67 -218 -108 -285 -108 -28
0 -48 -3 -45 -8 2 -4 22 -6 43 -5 21 2 50 4 66 4 15 1 27 6 27 11 0 4 3 7 8 6
4 -1 20 4 35 10 16 7 32 12 36 12 16 0 71 32 71 41 0 6 5 7 10 4 6 -3 10 -1
10 5 0 6 4 9 8 6 5 -3 18 3 29 14 12 10 24 16 27 13 3 -4 6 -1 6 6 0 7 5 9 10
6 6 -3 10 -2 10 3 0 10 41 30 76 36 57 11 151 83 145 110 -2 9 43 51 51 49 3
-1 32 6 62 17 31 10 56 16 56 13 0 -3 6 0 13 6 8 6 17 8 20 4 4 -3 7 -1 7 5 0
15 -3 15 -75 -9z"/>
<path d="M1345 371 c-48 -12 -135 -53 -135 -63 0 -5 6 -6 13 -1 6 4 18 8 26
10 8 1 17 7 21 13 4 7 9 11 11 10 2 -1 17 4 33 10 16 6 35 9 43 6 7 -3 13 -1
13 5 0 9 32 8 110 -6 26 -5 31 -4 19 4 -22 14 -116 21 -154 12z"/>
<path d="M248 294 c-15 -8 -37 -16 -50 -18 -13 -3 -25 -5 -28 -6 -3 -2 -8 -2
-12 -1 -5 0 -8 -4 -8 -10 0 -5 -4 -8 -9 -4 -5 3 -12 1 -16 -5 -4 -6 -10 -8
-15 -5 -11 7 -82 -74 -74 -86 3 -5 0 -17 -7 -25 -6 -8 -9 -17 -6 -21 4 -3 15
14 25 38 26 60 46 75 141 108 81 28 98 37 90 45 -2 2 -16 -2 -31 -10z"/>
<path d="M1187 303 c-9 -8 -22 -10 -187 -20 -141 -10 -206 -29 -250 -73 -11
-11 -20 -18 -20 -15 0 3 -12 -1 -27 -8 -40 -20 -169 -63 -230 -77 -50 -11 -71
-27 -38 -27 8 0 15 5 15 10 0 6 2 8 6 5 3 -3 25 0 49 7 24 8 46 11 49 8 3 -4
6 -2 6 4 0 5 6 10 13 11 21 2 40 8 81 25 21 9 45 17 52 17 8 0 22 8 32 18 10
9 25 18 32 20 8 2 25 11 39 22 14 10 31 19 36 20 6 1 19 6 30 10 11 3 61 8
110 9 50 1 104 4 120 6 76 12 88 14 93 20 3 3 3 7 0 10 -2 3 -8 2 -11 -2z"/>
<path d="M15 78 c-17 -54 -18 -53 79 -51 50 1 107 4 126 8 19 3 43 6 52 6 10
0 18 5 18 11 0 6 2 9 6 6 3 -3 26 0 51 8 25 8 49 11 54 8 5 -3 9 0 9 5 0 14
-2 14 -80 -5 -157 -38 -196 -44 -253 -38 -58 7 -58 7 -52 35 8 34 0 39 -10 7z"/>
</g>
</svg>
