<?xml version="1.0" standalone="no"?>
<!DOCTYPE svg PUBLIC "-//W3C//DTD SVG 20010904//EN"
 "http://www.w3.org/TR/2001/REC-SVG-20010904/DTD/svg10.dtd">
<svg version="1.0" xmlns="http://www.w3.org/2000/svg"
 width="300.000000pt" height="300.000000pt" viewBox="0 0 300.000000 300.000000"
 preserveAspectRatio="xMidYMid meet">
<metadata>
Created by potrace 1.10, written by Peter Selinger 2001-2011
</metadata>
<g transform="translate(0.000000,300.000000) scale(0.100000,-0.100000)"
fill="#d8e7f2" stroke="none">
<path d="M1300 2449 c0 -4 7 -12 15 -19 8 -7 13 -16 10 -20 -3 -5 5 -19 17
-32 13 -13 17 -16 10 -7 -7 9 -15 28 -18 43 l-4 26 252 2 253 3 -268 5 c-147
3 -267 2 -267 -1z"/>
<path d="M1871 2437 c-1 -9 8 -25 19 -34 11 -10 20 -23 20 -30 0 -7 5 -13 10
-13 12 0 -4 35 -21 45 -6 4 -14 17 -19 29 -7 17 -9 18 -9 3z"/>
<path d="M1180 2387 c-12 -19 -11 -20 2 -10 17 15 28 7 28 -19 0 -10 7 -21 15
-24 8 -4 15 -12 15 -20 0 -8 5 -14 10 -14 7 0 7 6 0 20 -6 11 -15 20 -20 20
-6 0 -10 8 -10 18 0 9 -6 25 -13 34 -12 15 -14 15 -27 -5z"/>
<path d="M1156 2343 c-6 -14 -5 -15 5 -6 7 7 10 15 7 18 -3 3 -9 -2 -12 -12z"/>
<path d="M1927 2339 c7 -7 15 -10 18 -7 3 3 -2 9 -12 12 -14 6 -15 5 -6 -5z"/>
<path d="M1360 2339 c0 -3 11 -20 25 -39 14 -19 25 -29 25 -23 0 5 -11 23 -25
39 -14 16 -25 26 -25 23z"/>
<path d="M1130 2300 c-6 -11 -8 -20 -6 -20 3 0 10 9 16 20 6 11 8 20 6 20 -3
0 -10 -9 -16 -20z"/>
<path d="M1945 2312 c13 -9 32 -39 50 -79 9 -18 17 -33 20 -33 7 0 -15 53 -29
70 -7 8 -16 23 -19 33 -4 9 -12 17 -19 17 -8 0 -9 -3 -3 -8z"/>
<path d="M1250 2280 c0 -6 6 -13 14 -16 8 -3 18 -18 21 -34 3 -15 16 -36 28
-46 22 -19 22 -19 6 1 -9 11 -20 31 -24 45 -8 27 -45 68 -45 50z"/>
<path d="M1105 2259 c-4 -6 -5 -12 -2 -15 2 -3 7 2 10 11 7 17 1 20 -8 4z"/>
<path d="M1410 2253 c0 -5 10 -18 23 -29 l22 -19 -20 25 c-11 14 -21 27 -22
29 -2 2 -3 0 -3 -6z"/>
<path d="M1082 2199 c-9 -17 -28 -44 -40 -60 -13 -16 -20 -29 -15 -29 7 0 24
23 68 93 10 15 14 27 11 27 -4 0 -15 -14 -24 -31z"/>
<path d="M2030 2191 c0 -6 4 -13 10 -16 6 -3 7 1 4 9 -7 18 -14 21 -14 7z"/>
<path d="M1460 2160 c6 -11 15 -20 20 -20 6 0 2 9 -7 20 -10 11 -19 20 -21 20
-1 0 2 -9 8 -20z"/>
<path d="M1335 2142 c2 -11 16 -32 31 -48 18 -20 23 -23 16 -8 -6 11 -18 26
-26 33 -9 8 -14 17 -11 21 3 5 1 11 -4 15 -6 3 -8 -3 -6 -13z"/>
<path d="M2061 2123 c7 -12 15 -20 18 -17 3 2 -3 12 -13 22 -17 16 -18 16 -5
-5z"/>
<path d="M1485 2120 c-3 -6 1 -13 9 -16 9 -3 14 -10 11 -14 -2 -4 5 -16 18
-26 22 -19 22 -19 4 2 -9 11 -14 24 -11 27 4 4 -1 9 -10 13 -9 3 -13 10 -10
15 3 5 3 9 0 9 -3 0 -8 -5 -11 -10z"/>
<path d="M1006 2083 c-6 -14 -5 -15 5 -6 7 7 10 15 7 18 -3 3 -9 -2 -12 -12z"/>
<path d="M2090 2086 c0 -8 4 -17 9 -20 5 -4 7 3 4 14 -6 23 -13 26 -13 6z"/>
<path d="M967 2015 c-14 -25 -24 -45 -22 -45 7 0 57 81 53 85 -2 2 -16 -16
-31 -40z"/>
<path d="M1380 2052 c0 -6 6 -15 14 -19 8 -5 19 -19 25 -33 6 -17 10 -19 10
-8 1 9 -10 29 -24 44 -14 15 -25 22 -25 16z"/>
<path d="M2124 2034 c9 -8 14 -19 11 -23 -2 -5 4 -16 15 -26 19 -17 19 -17 -1
24 -10 22 -24 41 -30 41 -6 0 -3 -7 5 -16z"/>
<path d="M1542 2021 c34 -61 38 -66 37 -51 0 8 -11 29 -25 45 -19 22 -22 24
-12 6z"/>
<path d="M910 1960 c-8 -5 -12 -12 -9 -15 4 -3 12 1 19 10 14 17 11 19 -10 5z"/>
<path d="M1454 1925 c12 -24 27 -47 35 -50 12 -5 12 -3 0 11 -8 10 -18 31 -24
47 -5 17 -15 32 -21 34 -6 2 -2 -17 10 -42z"/>
<path d="M858 1931 c-15 -9 -30 -22 -33 -29 -2 -7 10 -2 28 10 17 13 34 24 36
25 2 2 2 5 0 6 -2 2 -16 -3 -31 -12z"/>
<path d="M1591 1935 c9 -11 21 -34 28 -52 7 -17 19 -34 28 -37 10 -4 8 2 -6
20 -12 15 -21 32 -21 39 0 6 -10 20 -22 31 -23 19 -23 19 -7 -1z"/>
<path d="M1093 1915 c0 -8 4 -12 9 -9 5 3 6 10 3 15 -9 13 -12 11 -12 -6z"/>
<path d="M1039 1903 c-8 -9 -8 -13 0 -13 6 0 11 5 11 11 0 5 4 8 9 4 5 -3 12
-2 15 3 9 14 -23 10 -35 -5z"/>
<path d="M2212 1891 c13 -15 24 -27 26 -26 6 5 -23 45 -36 50 -7 3 -3 -8 10
-24z"/>
<path d="M791 1887 c-6 -8 -29 -22 -51 -32 -22 -10 -40 -22 -40 -27 0 -5 17 0
38 13 38 22 81 59 70 59 -3 0 -11 -6 -17 -13z"/>
<path d="M1000 1875 c-11 -13 -10 -14 4 -9 9 3 16 10 16 15 0 13 -6 11 -20 -6z"/>
<path d="M937 1849 c-21 -11 -46 -28 -56 -37 -10 -9 -26 -23 -37 -30 -18 -12
-18 -12 1 -3 18 8 124 77 134 87 8 8 -5 3 -42 -17z"/>
<path d="M1504 1846 c1 -8 5 -18 8 -22 4 -3 5 1 4 10 -1 8 -5 18 -8 22 -4 3
-5 -1 -4 -10z"/>
<path d="M1045 1803 c-14 -27 -32 -59 -41 -73 l-16 -25 21 25 c23 27 75 120
66 120 -2 0 -16 -21 -30 -47z"/>
<path d="M2255 1826 c10 -14 19 -26 22 -26 7 0 -17 39 -28 46 -6 3 -3 -5 6
-20z"/>
<path d="M665 1820 c-3 -6 1 -7 9 -4 18 7 21 14 7 14 -6 0 -13 -4 -16 -10z"/>
<path d="M1650 1821 c0 -6 4 -13 10 -16 6 -3 7 1 4 9 -7 18 -14 21 -14 7z"/>
<path d="M1166 1795 c-9 -14 -13 -25 -8 -25 5 0 14 11 20 25 6 14 10 25 8 25
-2 0 -11 -11 -20 -25z"/>
<path d="M614 1795 c-18 -13 -18 -14 4 -8 12 3 25 9 28 14 8 14 -10 11 -32 -6z"/>
<path d="M1676 1791 c-3 -5 1 -14 9 -21 8 -7 15 -18 15 -26 0 -7 10 -23 23
-36 12 -13 16 -17 10 -8 -7 9 -18 31 -24 48 -6 18 -15 32 -21 32 -5 0 -6 5 -3
10 3 6 4 10 1 10 -3 0 -7 -4 -10 -9z"/>
<path d="M2276 1777 c3 -10 9 -15 12 -12 3 3 0 11 -7 18 -10 9 -11 8 -5 -6z"/>
<path d="M570 1770 c-9 -6 -10 -10 -3 -10 6 0 15 5 18 10 8 12 4 12 -15 0z"/>
<path d="M794 1754 c-18 -14 -18 -15 4 -4 12 6 22 13 22 15 0 8 -5 6 -26 -11z"/>
<path d="M2300 1761 c0 -6 4 -13 10 -16 6 -3 7 1 4 9 -7 18 -14 21 -14 7z"/>
<path d="M501 1730 c-24 -16 -47 -28 -50 -25 -4 2 -13 -1 -21 -6 -11 -7 -7 -8
14 -5 27 5 106 50 106 61 0 7 1 7 -49 -25z"/>
<path d="M1138 1738 c-9 -13 -15 -27 -16 -32 0 -5 -5 -12 -10 -15 -5 -3 -19
-26 -31 -51 -12 -25 -16 -37 -9 -26 46 67 56 85 50 90 -3 3 -1 6 5 6 5 0 15
11 21 25 14 31 9 32 -10 3z"/>
<path d="M1550 1751 c0 -6 7 -14 15 -17 8 -4 12 -10 9 -15 -3 -5 -1 -9 5 -9 5
0 12 -8 14 -17 4 -16 5 -16 6 -1 0 9 -10 29 -24 44 -14 15 -25 22 -25 15z"/>
<path d="M1204 1655 c0 -49 1 -71 3 -48 2 23 2 64 0 90 -2 26 -3 8 -3 -42z"/>
<path d="M730 1719 c0 -5 5 -7 10 -4 6 3 10 8 10 11 0 2 -4 4 -10 4 -5 0 -10
-5 -10 -11z"/>
<path d="M648 1689 c-21 -11 -38 -25 -37 -32 0 -9 2 -9 6 1 2 6 10 12 16 12 7
0 26 9 42 20 38 25 21 25 -27 -1z"/>
<path d="M2320 1708 c0 -2 14 -20 31 -39 17 -19 27 -25 21 -14 -10 20 -52 63
-52 53z"/>
<path d="M971 1673 c-10 -26 -10 -27 4 -9 8 11 15 23 15 28 0 15 -7 8 -19 -19z"/>
<path d="M335 1655 c-25 -12 -26 -14 -5 -9 14 4 29 10 35 15 12 12 5 11 -30
-6z"/>
<path d="M1610 1663 c0 -7 5 -15 10 -18 6 -3 10 -15 10 -25 0 -10 6 -25 13
-32 6 -7 21 -30 31 -51 11 -20 23 -37 28 -37 5 0 0 12 -11 26 -12 15 -21 32
-21 39 0 7 -7 18 -15 25 -8 7 -15 20 -15 29 -1 18 -30 61 -30 44z"/>
<path d="M1749 1652 c5 -10 18 -25 27 -33 11 -9 9 -2 -6 19 -26 35 -36 42 -21
14z"/>
<path d="M575 1640 c-3 -6 1 -7 9 -4 18 7 21 14 7 14 -6 0 -13 -4 -16 -10z"/>
<path d="M280 1611 c-18 -34 -11 -55 30 -93 37 -35 70 -51 55 -28 -3 6 -11 10
-16 10 -16 0 -69 59 -69 77 0 9 7 25 17 35 9 10 11 18 5 18 -6 0 -16 -9 -22
-19z"/>
<path d="M533 1620 c-13 -5 -23 -11 -23 -14 0 -7 40 6 46 15 6 10 6 10 -23 -1z"/>
<path d="M2380 1617 c8 -7 21 -19 29 -27 11 -13 12 -12 3 6 -7 12 -19 24 -29
28 -16 5 -16 4 -3 -7z"/>
<path d="M930 1583 c-11 -21 -34 -60 -49 -88 -16 -27 -27 -53 -25 -57 3 -5 1
-8 -4 -8 -5 0 -14 -12 -21 -27 l-12 -28 25 30 c13 16 22 33 20 36 -2 3 16 37
39 75 24 39 46 78 50 87 11 30 -2 18 -23 -20z"/>
<path d="M446 1584 c-11 -8 -15 -14 -9 -14 7 0 14 4 18 10 3 5 12 7 19 4 8 -3
16 -1 19 3 9 15 -27 12 -47 -3z"/>
<path d="M1786 1586 c3 -9 10 -16 16 -16 5 0 6 -4 3 -10 -3 -5 -2 -10 4 -10 6
0 13 -11 17 -25 3 -14 10 -25 16 -25 5 0 7 -4 4 -9 -3 -4 4 -17 15 -27 18 -16
19 -16 13 -1 -3 9 -10 17 -15 17 -5 0 -8 3 -7 8 3 11 -39 87 -56 102 -14 11
-16 10 -10 -4z"/>
<path d="M1040 1555 c-7 -9 -8 -15 -2 -15 5 0 12 7 16 15 3 8 4 15 2 15 -2 0
-9 -7 -16 -15z"/>
<path d="M2425 1550 c10 -11 20 -20 23 -20 3 0 -3 9 -13 20 -10 11 -20 20 -23
20 -3 0 3 -9 13 -20z"/>
<path d="M1202 1518 c-2 -42 -3 -309 -2 -593 l0 -95 101 0 c63 0 98 4 94 10
-3 6 -43 8 -95 6 l-90 -4 -3 362 c-1 198 -3 340 -5 314z"/>
<path d="M458 1533 c12 -8 22 -21 22 -29 0 -7 9 -18 20 -24 11 -6 20 -17 20
-25 0 -8 11 -26 25 -41 14 -15 25 -22 25 -17 0 5 -9 18 -20 28 -11 10 -20 24
-20 31 0 8 -9 19 -20 26 -11 7 -20 18 -20 24 0 13 -33 44 -46 43 -5 0 1 -7 14
-16z"/>
<path d="M1014 1498 c-9 -18 -27 -46 -39 -63 -23 -31 -30 -48 -46 -99 -6 -20
-5 -26 1 -20 6 6 12 20 14 31 5 24 35 86 46 93 10 7 52 90 45 90 -2 0 -12 -15
-21 -32z"/>
<path d="M2454 1506 c1 -8 5 -18 8 -22 4 -3 5 1 4 10 -1 8 -5 18 -8 22 -4 3
-5 -1 -4 -10z"/>
<path d="M2475 1470 c-3 -6 1 -13 9 -16 9 -3 16 -14 16 -24 0 -11 5 -22 11
-26 16 -10 1 38 -17 52 -7 6 -11 14 -7 17 3 4 4 7 0 7 -3 0 -9 -5 -12 -10z"/>
<path d="M360 1467 c0 -2 14 -16 30 -30 17 -15 30 -23 30 -19 0 5 -13 18 -30
30 -16 13 -30 21 -30 19z"/>
<path d="M2838 1458 c12 -6 22 -14 22 -18 0 -11 29 -45 30 -34 0 16 -47 64
-62 63 -7 0 -3 -5 10 -11z"/>
<path d="M2752 1448 c-7 -7 -12 -16 -12 -22 0 -5 6 -3 13 6 6 9 23 19 37 21
l25 4 -25 2 c-15 0 -31 -4 -38 -11z"/>
<path d="M1754 1408 c6 -26 18 -48 29 -48 5 0 3 8 -6 18 -8 9 -16 21 -15 25 0
5 -3 11 -5 14 -3 3 -4 -1 -3 -9z"/>
<path d="M1895 1400 c10 -11 20 -20 23 -20 3 0 -3 9 -13 20 -10 11 -20 20 -23
20 -3 0 3 -9 13 -20z"/>
<path d="M420 1398 c0 -4 14 -22 30 -40 17 -18 30 -29 30 -26 0 4 -13 22 -30
40 -16 18 -30 29 -30 26z"/>
<path d="M2718 1361 c-29 -61 -31 -79 -3 -27 14 27 24 52 23 56 -2 4 -11 -9
-20 -29z"/>
<path d="M570 1375 c0 -5 6 -16 14 -24 7 -9 18 -29 24 -46 8 -23 11 -25 11 -9
1 11 -10 35 -24 54 -14 19 -25 30 -25 25z"/>
<path d="M2540 1370 c0 -5 5 -10 11 -10 5 0 7 5 4 10 -3 6 -8 10 -11 10 -2 0
-4 -4 -4 -10z"/>
<path d="M2881 1364 c0 -12 -8 -27 -16 -34 -8 -7 -15 -20 -15 -29 0 -9 9 -2
21 18 11 18 18 41 16 50 -3 11 -5 10 -6 -5z"/>
<path d="M817 1363 c-4 -3 -7 -11 -7 -17 0 -6 5 -5 12 2 6 6 9 14 7 17 -3 3
-9 2 -12 -2z"/>
<path d="M1920 1350 c6 -11 13 -20 16 -20 2 0 0 9 -6 20 -6 11 -13 20 -16 20
-2 0 0 -9 6 -20z"/>
<path d="M1790 1340 c0 -5 5 -10 11 -10 5 0 7 5 4 10 -3 6 -8 10 -11 10 -2 0
-4 -4 -4 -10z"/>
<path d="M211 1317 c-27 -14 -59 -57 -43 -57 6 0 14 9 17 20 4 13 18 23 36 27
16 3 29 9 29 14 0 12 -10 11 -39 -4z"/>
<path d="M287 1300 c14 -16 28 -30 30 -30 2 0 -6 14 -19 30 -12 17 -25 30 -30
30 -4 0 4 -13 19 -30z"/>
<path d="M775 1290 c-15 -22 -25 -43 -21 -47 3 -3 6 -1 6 5 0 6 11 23 25 38
22 24 32 44 21 44 -2 0 -16 -18 -31 -40z"/>
<path d="M2570 1320 c0 -5 5 -10 11 -10 5 0 7 5 4 10 -3 6 -8 10 -11 10 -2 0
-4 -4 -4 -10z"/>
<path d="M470 1317 c0 -2 11 -18 25 -37 14 -19 25 -29 25 -23 0 6 -7 16 -15
23 -8 7 -15 19 -15 26 0 8 -4 14 -10 14 -5 0 -10 -1 -10 -3z"/>
<path d="M1800 1312 c0 -11 27 -42 37 -42 3 0 -2 10 -13 23 -10 12 -20 24 -21
26 -2 2 -3 -1 -3 -7z"/>
<path d="M2270 1295 c-13 -14 -20 -28 -17 -32 4 -3 0 -17 -8 -29 -9 -15 -11
-25 -5 -29 6 -4 9 -3 8 2 -1 4 3 18 10 29 6 12 8 24 5 28 -4 3 4 17 17 31 13
14 21 25 18 25 -2 0 -15 -11 -28 -25z"/>
<path d="M2374 1309 c-4 -7 -3 -9 4 -5 5 3 13 0 15 -6 4 -9 6 -10 6 -1 1 17
-16 25 -25 12z"/>
<path d="M905 1289 c-4 -6 -5 -12 -2 -15 2 -3 7 2 10 11 7 17 1 20 -8 4z"/>
<path d="M1956 1286 c3 -9 11 -16 17 -16 6 0 8 -3 4 -6 -3 -4 1 -13 9 -21 8
-8 12 -19 8 -24 -3 -5 2 -12 10 -15 9 -3 14 -10 11 -14 -2 -4 5 -16 16 -26 18
-16 19 -16 13 -1 -3 9 -10 17 -16 17 -5 0 -7 4 -4 9 3 4 -8 28 -23 53 -30 47
-56 72 -45 44z"/>
<path d="M2600 1265 c24 -32 40 -47 40 -37 0 4 -12 19 -27 33 -20 18 -23 19
-13 4z"/>
<path d="M2676 1265 c-3 -9 -6 -26 -5 -38 1 -14 4 -9 9 13 9 37 7 52 -4 25z"/>
<path d="M2843 1267 c0 -7 -3 -22 -7 -34 -11 -34 0 -28 12 7 6 16 7 32 3 34
-4 3 -8 0 -8 -7z"/>
<path d="M630 1256 c0 -8 4 -17 9 -20 5 -4 7 3 4 14 -6 23 -13 26 -13 6z"/>
<path d="M160 1244 c0 -7 7 -25 15 -40 8 -16 15 -24 15 -18 0 7 -7 25 -15 40
-8 16 -15 24 -15 18z"/>
<path d="M870 1225 c-7 -9 -8 -15 -2 -15 5 0 12 7 16 15 3 8 4 15 2 15 -2 0
-9 -7 -16 -15z"/>
<path d="M725 1199 c-9 -17 -14 -33 -11 -36 3 -3 10 7 16 22 6 15 13 32 16 36
3 5 3 9 0 9 -3 0 -13 -14 -21 -31z"/>
<path d="M1850 1226 c0 -2 8 -10 18 -17 15 -13 16 -12 3 4 -13 16 -21 21 -21
13z"/>
<path d="M490 1180 c-6 -11 -9 -20 -8 -20 2 0 11 9 21 20 9 11 13 20 7 20 -5
0 -14 -9 -20 -20z"/>
<path d="M830 1160 c-11 -21 -20 -46 -20 -54 0 -8 -7 -22 -16 -30 -8 -9 -11
-16 -4 -16 10 0 14 8 41 78 7 19 18 40 26 48 8 8 10 14 4 14 -6 0 -20 -18 -31
-40z"/>
<path d="M2401 1183 c-1 -6 -4 -20 -7 -30 -5 -17 -5 -17 6 0 6 10 9 23 6 30
-3 9 -5 9 -5 0z"/>
<path d="M2813 1175 c-3 -9 -3 -18 -1 -21 3 -3 8 4 11 16 6 23 -1 27 -10 5z"/>
<path d="M351 1164 c0 -11 3 -14 6 -6 3 7 2 16 -1 19 -3 4 -6 -2 -5 -13z"/>
<path d="M662 1155 c6 -14 13 -24 14 -22 6 6 -9 47 -17 47 -5 0 -3 -11 3 -25z"/>
<path d="M1890 1154 c0 -10 50 -60 50 -51 0 3 -11 18 -25 33 -14 15 -25 23
-25 18z"/>
<path d="M2210 1141 c-11 -21 -25 -99 -16 -91 3 3 8 21 11 39 3 19 10 42 16
52 5 11 7 19 5 19 -3 0 -10 -9 -16 -19z"/>
<path d="M2786 1124 c-4 -14 -5 -29 -2 -31 3 -3 8 7 12 21 3 15 4 29 1 32 -2
3 -8 -7 -11 -22z"/>
<path d="M360 1120 c6 -11 13 -20 16 -20 2 0 0 9 -6 20 -6 11 -13 20 -16 20
-2 0 0 -9 6 -20z"/>
<path d="M693 1125 c0 -8 4 -12 9 -9 5 3 6 10 3 15 -9 13 -12 11 -12 -6z"/>
<path d="M2049 1122 c5 -10 18 -25 27 -33 11 -9 9 -2 -6 19 -26 35 -36 42 -21
14z"/>
<path d="M453 1095 c-9 -19 -20 -35 -24 -35 -4 0 -10 -7 -13 -16 -6 -14 -4
-15 10 -4 16 14 58 90 49 90 -3 0 -13 -16 -22 -35z"/>
<path d="M2362 1093 c-15 -48 -8 -55 8 -8 7 20 10 38 8 41 -3 2 -10 -13 -16
-33z"/>
<path d="M212 1096 c1 -14 5 -23 9 -20 7 4 0 44 -7 44 -2 0 -3 -11 -2 -24z"/>
<path d="M1930 1080 c0 -6 6 -13 14 -16 8 -3 16 -17 20 -32 3 -15 20 -43 37
-62 l31 -35 -26 38 c-15 20 -29 47 -31 59 -5 22 -45 66 -45 48z"/>
<path d="M2086 1057 c3 -10 9 -15 12 -12 3 3 0 11 -7 18 -10 9 -11 8 -5 -6z"/>
<path d="M220 1054 c0 -6 7 -19 15 -30 8 -10 14 -14 14 -9 0 6 -6 19 -14 29
-8 11 -15 15 -15 10z"/>
<path d="M2747 1030 c-15 -16 -32 -30 -39 -30 -6 0 -9 -3 -6 -6 10 -9 44 13
62 41 22 33 15 32 -17 -5z"/>
<path d="M770 1029 c-7 -11 -10 -23 -7 -25 2 -2 9 7 15 21 14 30 7 33 -8 4z"/>
<path d="M2110 1035 c0 -5 5 -17 10 -25 5 -8 10 -10 10 -5 0 6 -5 17 -10 25
-5 8 -10 11 -10 5z"/>
<path d="M2175 1029 c-4 -6 -5 -12 -2 -15 2 -3 7 2 10 11 7 17 1 20 -8 4z"/>
<path d="M2317 951 c-15 -33 -27 -63 -27 -67 1 -5 14 20 31 54 17 35 29 66 27
68 -2 2 -16 -23 -31 -55z"/>
<path d="M246 980 c6 -23 34 -71 34 -59 0 3 -9 23 -20 45 -12 22 -18 28 -14
14z"/>
<path d="M2161 983 c-9 -16 -12 -16 -22 -3 -9 13 -10 12 -5 -3 3 -10 6 -21 6
-23 0 -14 19 0 28 21 13 29 8 34 -7 8z"/>
<path d="M2644 984 c-19 -15 -19 -15 1 -6 11 5 27 12 35 15 13 5 13 6 -1 6 -8
1 -24 -6 -35 -15z"/>
<path d="M728 953 c-9 -10 -23 -34 -32 -53 -9 -19 -11 -27 -4 -16 58 85 69
106 36 69z"/>
<path d="M2598 963 c7 -3 16 -2 19 1 4 3 -2 6 -13 5 -11 0 -14 -3 -6 -6z"/>
<path d="M2540 950 c-9 -6 -10 -10 -3 -10 6 0 15 5 18 10 8 12 4 12 -15 0z"/>
<path d="M2469 933 c-13 -15 -12 -15 6 -6 11 6 27 13 35 16 10 4 8 6 -6 6 -12
1 -28 -6 -35 -16z"/>
<path d="M2020 921 c0 -5 7 -12 16 -15 14 -5 15 -4 4 9 -14 17 -20 19 -20 6z"/>
<path d="M2429 920 c-9 -5 -36 -12 -59 -15 -24 -3 -46 -8 -49 -11 -3 -3 16 -3
43 0 45 6 86 21 86 31 0 7 -2 6 -21 -5z"/>
<path d="M280 881 c0 -6 4 -13 10 -16 6 -3 7 1 4 9 -7 18 -14 21 -14 7z"/>
<path d="M2055 860 c0 -23 5 -30 19 -30 18 0 18 1 3 18 -8 9 -16 21 -15 25 0
5 -2 10 -4 12 -2 2 -4 -9 -3 -25z"/>
<path d="M505 839 c-19 -4 0 -7 50 -8 44 0 85 3 92 7 14 9 -100 9 -142 1z"/>
<path d="M1425 840 c-15 -7 -10 -9 23 -9 23 -1 42 4 42 9 0 12 -37 12 -65 0z"/>
<path d="M1640 839 c-57 -4 -42 -6 65 -6 134 0 152 3 55 9 -25 2 -79 0 -120
-3z"/>
<path d="M1925 840 c-19 -8 -19 -9 3 -9 12 -1 22 4 22 9 0 6 -1 10 -2 9 -2 0
-12 -4 -23 -9z"/>
<path d="M2025 840 c-3 -5 -1 -10 4 -10 6 0 11 5 11 10 0 6 -2 10 -4 10 -3 0
-8 -4 -11 -10z"/>
<path d="M328 833 c6 -2 18 -2 25 0 6 3 1 5 -13 5 -14 0 -19 -2 -12 -5z"/>
<path d="M393 833 c9 -2 25 -2 35 0 9 3 1 5 -18 5 -19 0 -27 -2 -17 -5z"/>
<path d="M1538 833 c7 -3 16 -2 19 1 4 3 -2 6 -13 5 -11 0 -14 -3 -6 -6z"/>
</g>
</svg>
