<?xml version="1.0" standalone="no"?>
<!DOCTYPE svg PUBLIC "-//W3C//DTD SVG 20010904//EN"
 "http://www.w3.org/TR/2001/REC-SVG-20010904/DTD/svg10.dtd">
<svg version="1.0" xmlns="http://www.w3.org/2000/svg"
 width="300.000000pt" height="300.000000pt" viewBox="0 0 300.000000 300.000000"
 preserveAspectRatio="xMidYMid meet">
<metadata>
Created by potrace 1.10, written by Peter Selinger 2001-2011
</metadata>
<g transform="translate(0.000000,300.000000) scale(0.100000,-0.100000)"
fill="#d8e7f2" stroke="none">
<path d="M248 2285 c-2 -2 -25 -5 -53 -8 -27 -3 -71 -12 -97 -20 -26 -8 -49
-13 -51 -11 -2 2 -14 -7 -26 -20 l-23 -24 30 -16 c16 -8 32 -12 36 -9 3 4 6 2
6 -4 0 -5 6 -10 13 -11 6 -1 26 -4 42 -7 78 -13 118 -16 220 -17 120 -1 161
10 174 44 9 26 -3 71 -25 89 -12 10 -237 22 -246 14z m242 -35 c11 -11 20 -29
20 -40 0 -11 -9 -29 -20 -40 -18 -18 -33 -20 -127 -20 -160 0 -343 33 -343 61
0 9 76 34 151 48 24 5 101 9 172 10 115 1 129 -1 147 -19z"/>
<path d="M586 2268 c-3 -13 -6 -55 -6 -93 l0 -71 -32 -2 c-18 -2 -34 -5 -37
-7 -2 -3 -5 -31 -6 -63 -1 -52 -3 -57 -24 -58 -74 -4 -120 -101 -82 -172 26
-49 53 -56 210 -56 280 1 325 8 84 14 -235 5 -243 6 -265 28 -18 17 -23 34
-23 73 0 43 4 54 28 75 15 13 36 24 46 24 29 0 44 26 38 64 -5 34 14 78 28 64
4 -4 16 -3 26 3 15 8 19 21 19 68 0 83 9 123 28 119 21 -4 33 -54 26 -109 -5
-39 -3 -50 15 -68 14 -14 29 -20 41 -16 23 7 35 -26 28 -75 -3 -17 1 -35 7
-40 8 -7 282 -9 771 -8 l759 3 5 54 c5 52 7 55 37 63 43 11 57 39 49 102 -7
64 1 96 25 96 19 0 26 -32 32 -135 2 -45 4 -50 27 -53 35 -5 49 -28 43 -68 -6
-38 9 -64 38 -64 10 0 31 -11 46 -24 24 -21 28 -32 28 -75 0 -39 -5 -56 -23
-73 -22 -22 -30 -23 -265 -28 -243 -6 -190 -14 97 -15 134 0 165 9 195 59 38
62 -7 164 -75 169 -28 2 -29 4 -27 52 2 58 -9 75 -48 75 l-29 0 -2 83 c0 45
-1 88 -1 95 1 7 -12 12 -32 12 -40 0 -46 -13 -44 -96 2 -88 1 -89 -27 -92 -43
-3 -54 -19 -54 -78 l0 -54 -760 0 -760 0 0 53 c0 55 -12 77 -41 77 -24 0 -40
23 -41 61 0 19 -3 55 -5 82 -5 44 -7 47 -33 47 -20 0 -29 -6 -34 -22z"/>
<path d="M819 2285 c-3 -2 -20 -5 -37 -7 -41 -3 -65 -29 -64 -69 1 -36 22 -63
54 -69 91 -16 307 0 378 28 25 10 33 12 48 12 4 0 16 7 27 15 19 15 19 16 -5
32 -14 10 -29 19 -35 20 -40 8 -59 13 -78 19 -37 12 -279 28 -288 19z m257
-30 c95 -18 144 -34 144 -45 0 -25 -193 -62 -331 -63 -128 -1 -162 13 -157 66
2 22 11 35 28 44 35 18 220 16 316 -2z"/>
<path d="M2008 2285 c-2 -2 -26 -6 -53 -9 -60 -6 -187 -47 -192 -62 -3 -9 32
-32 47 -31 3 0 16 -5 29 -13 14 -7 47 -15 75 -17 28 -3 58 -8 66 -12 15 -7
222 -6 250 1 29 7 47 23 53 47 7 28 -15 76 -40 86 -19 8 -228 16 -235 10z
m240 -31 c31 -22 30 -69 -4 -90 -47 -32 -292 -18 -416 22 -27 9 -48 20 -48 25
0 9 67 30 150 47 25 6 101 10 170 11 99 1 130 -2 148 -15z"/>
<path d="M2510 2272 c-30 -14 -34 -24 -30 -72 4 -53 28 -63 152 -63 105 0 184
6 233 17 57 12 102 27 118 39 17 12 17 14 -5 34 -13 12 -40 24 -62 27 -21 4
-43 9 -48 12 -15 9 -75 15 -205 18 -92 2 -129 -1 -153 -12z m220 -2 c115 -11
250 -43 250 -59 0 -12 -77 -37 -154 -50 -33 -6 -113 -11 -178 -11 -105 0 -120
2 -138 20 -24 24 -26 63 -4 81 9 7 34 16 57 20 23 3 44 7 47 8 3 0 57 -4 120
-9z"/>
<path d="M1046 1741 c-8 -12 -34 -191 -90 -621 -5 -39 -19 -142 -36 -265 -14
-104 -17 -113 -41 -120 -40 -13 -52 12 -45 95 3 41 8 86 11 100 2 14 13 97 24
185 11 88 32 249 46 358 24 186 35 357 14 212 -5 -33 -11 -78 -14 -100 -2 -22
-8 -58 -12 -80 -4 -22 -8 -53 -9 -70 -3 -63 -15 -151 -24 -180 -4 -16 -8 -37
-8 -45 1 -19 -11 -126 -17 -165 -3 -16 -7 -57 -10 -90 -3 -33 -10 -80 -14
-105 -11 -54 -6 -111 12 -122 35 -22 86 3 89 45 1 21 4 36 8 47 2 5 5 29 15
112 4 29 9 71 12 93 3 22 6 52 7 68 0 15 4 27 7 27 3 0 6 12 6 28 0 24 11 134
16 172 2 8 5 20 8 25 3 6 7 34 8 64 1 30 4 58 7 62 3 5 7 30 10 56 9 89 10 99
18 111 4 7 5 15 3 20 -3 4 -2 25 2 47 l7 40 23 -40 c12 -22 31 -56 42 -76 32
-56 61 -68 164 -66 l90 2 0 -66 0 -66 -99 3 c-107 3 -156 -9 -175 -43 -5 -11
-10 -106 -10 -229 0 -206 1 -209 24 -236 l24 -28 359 0 358 0 27 28 26 27 -2
217 c-3 276 6 263 -167 262 l-120 0 6 61 c4 33 8 62 10 64 1 1 42 3 90 3 83 0
88 1 120 32 19 17 47 55 63 85 30 56 39 55 46 -6 2 -21 4 -38 5 -38 1 0 3 -13
5 -30 2 -16 6 -50 9 -75 4 -25 8 -65 11 -90 3 -25 8 -53 11 -62 3 -10 7 -35 9
-55 2 -21 7 -63 11 -93 4 -30 8 -67 9 -82 1 -16 3 -29 4 -30 1 -2 4 -16 6 -33
2 -16 6 -50 9 -75 4 -25 8 -65 11 -90 2 -25 8 -59 14 -77 5 -17 7 -34 4 -37
-10 -10 18 -72 38 -85 19 -11 25 -10 48 7 28 21 30 35 16 157 -4 33 -8 72 -9
88 -2 15 -5 28 -6 30 -4 3 -14 90 -25 212 -1 17 -7 55 -13 85 -6 30 -14 84
-17 120 -7 80 -14 136 -20 175 -3 17 -7 54 -10 84 -3 30 -7 56 -10 59 -11 12
-3 -81 30 -340 76 -592 80 -628 69 -646 -17 -27 -52 -27 -64 0 -8 20 -47 294
-105 743 -23 172 -36 233 -51 239 -10 4 -29 -17 -58 -62 -23 -37 -50 -73 -60
-81 -10 -9 -46 -15 -96 -17 -122 -4 -121 -3 -118 -82 l3 -67 115 -3 c150 -4
156 -8 165 -108 4 -41 6 -138 3 -215 -4 -127 -6 -141 -27 -163 l-22 -24 -354
2 c-401 1 -377 -4 -389 85 -8 58 -8 271 1 339 8 74 22 81 164 85 l114 2 0 74
0 75 -97 1 c-65 1 -102 6 -113 15 -9 7 -36 44 -60 81 -45 70 -60 85 -69 70z"/>
<path d="M1426 1375 c-49 -17 -103 -68 -127 -120 -48 -103 1 -234 107 -286 38
-18 57 -21 110 -16 80 6 132 37 170 103 69 118 26 252 -101 310 -57 27 -102
29 -159 9z m130 -8 c7 -2 19 -9 28 -16 9 -7 16 -10 16 -5 0 19 73 -65 91 -105
25 -58 23 -95 -9 -161 -40 -80 -96 -113 -192 -113 -78 0 -142 45 -179 127 -47
108 24 252 135 272 16 3 31 8 34 10 4 5 40 1 76 -9z"/>
<path d="M1450 1272 c-43 -21 -83 -87 -74 -122 3 -14 16 -39 29 -56 54 -71
163 -57 206 28 l22 43 -27 50 c-19 38 -35 54 -59 63 -44 16 -56 15 -97 -6z
m101 -15 c49 -33 64 -70 50 -119 -13 -42 -58 -78 -99 -78 -53 0 -112 56 -112
107 0 31 39 84 73 98 43 19 49 19 88 -8z"/>
</g>
</svg>
